<?xml version="1.0" standalone="no"?>
<!DOCTYPE svg PUBLIC "-//W3C//DTD SVG 1.1//EN" "http://www.w3.org/Graphics/SVG/1.1/DTD/svg11.dtd">
<svg width="100%" height="100%" viewBox="0 0 50 50" version="1.1" xmlns="http://www.w3.org/2000/svg" xmlns:xlink="http://www.w3.org/1999/xlink" xml:space="preserve" style="fill-rule:evenodd;clip-rule:evenodd;stroke-linecap:round;stroke-linejoin:round;stroke-miterlimit:1.41421;">
    <g transform="matrix(1,0,0,1,1.06581e-14,0.110978)">
        <g transform="matrix(0.545132,0,0,0.579496,-6.36109,-13.7537)">
            <path d="M71.961,44.27C67.294,38.083 49.171,38.966 47.612,39.247C41.443,40.36 35.961,50.875 37.838,57.987C40.47,67.957 49.832,71.311 59.918,71.69C65.895,71.915 76.654,66.233 76.654,58.747C76.654,56.798 76.582,50.397 71.961,44.27Z" style="fill:none;stroke-width:1.78px;stroke:black;"/>
        </g>
        <g transform="matrix(1,0,0,1,-34.1331,-30.1438)">
            <path d="M71.318,37.697C70.408,37.932 68.252,40.649 69.448,41.048C72.158,41.951 73.392,41.16 74.912,39.635C75.592,38.952 72.229,37.461 71.318,37.697Z" style="fill:none;stroke-width:1px;stroke:black;"/>
        </g>
        <g transform="matrix(1,0,0,1,-31.325,-29.2489)">
            <path d="M53.656,33.428C53.656,33.428 56.142,37.639 58.072,35.701C60.441,33.323 51.183,30.093 53.656,33.428Z" style="fill:none;stroke-width:1px;stroke:black;"/>
        </g>
        <g transform="matrix(1,0,0,1,-23.2835,-35.1398)">
            <path d="M34.427,41.613C33.544,42.052 32.77,45.005 32.743,46.135C32.734,46.48 35.292,46.282 35.785,46.036C36.59,45.634 37.632,44.635 37.629,43.308C37.626,41.897 35.178,41.24 34.427,41.613Z" style="fill:none;stroke-width:1px;stroke:black;"/>
        </g>
        <g transform="matrix(1,0,0,1,-25.1548,-36.2623)">
            <path d="M32.814,58.265C32.631,58.629 33.051,60.327 33.426,60.866C33.737,61.312 35.095,61.694 36.017,61.185C37.34,60.456 37.483,59.47 37.147,57.793C36.68,55.459 33.353,57.186 32.814,58.265Z" style="fill:none;stroke-width:1px;stroke:black;"/>
        </g>
        <g transform="matrix(1,0,0,1,-26.7362,-41.0567)">
            <path d="M48.712,71.337C47.744,70.255 45.467,70.797 44.314,71.76C43.161,72.724 42.89,74.388 43.342,74.539C44.133,74.803 48.057,74.906 48.523,73.975C48.635,73.752 49.467,72.181 48.712,71.337Z" style="fill:none;stroke-width:1px;stroke:black;"/>
        </g>
        <g transform="matrix(1,0,0,1,-35.3052,-45.2538)">
            <path d="M72.934,77.271C74.318,75.787 71.876,73.378 69.88,73.194C68.399,73.058 67.3,74.895 67.47,75.293C67.818,76.104 72.035,78.236 72.934,77.271Z" style="fill:none;stroke-width:1px;stroke:black;"/>
        </g>
        <g transform="matrix(1,0,0,1,-40.4448,-42.8209)">
            <path d="M80.199,59.69C77.795,61.419 79.644,65.992 79.928,66.19C81.162,67.048 82.418,64.339 82.649,63.646C83.122,62.231 82.618,60.622 81.707,59.971C81.503,59.826 80.541,59.443 80.199,59.69Z" style="fill:none;stroke-width:1px;stroke:black;"/>
        </g>
    </g>
    <g transform="matrix(1,0,0,1,-30.1868,-62.9115)">
        <path d="M41.631,102.432C41.823,103.128 42.206,104.52 42.498,105.284C42.813,106.107 44.663,110.161 44.815,110.049C45.203,109.765 45.842,106.995 46.42,106.931C46.998,106.867 48.277,109.687 48.283,109.666C48.586,108.577 48.634,107.433 48.861,106.326C49.138,104.98 49.851,102.054 49.944,101.591" style="fill:none;stroke-width:1px;stroke:black;"/>
    </g>
    <g transform="matrix(1,0,0,1,-18.715,-63.2087)">
        <path d="M52.658,102.371C53.782,102.014 55.591,101.296 56.386,102.636C56.527,102.874 56.646,103.127 56.734,103.389C56.817,103.635 56.859,103.894 56.897,104.151C57.021,104.981 57.154,105.812 57.221,106.648C57.251,107.024 57.434,108.702 56.839,109.127C55.935,109.774 54.43,109.734 53.454,109.281C53.002,109.071 52.42,108.665 52.335,108.111C51.984,105.828 54.194,103.902 56.216,103.376" style="fill:none;stroke-width:1px;stroke:black;"/>
    </g>
    <g transform="matrix(1,0,0,1,-30.2388,-63.0906)">
        <path d="M52.658,102.371C53.782,102.014 55.591,101.296 56.386,102.636C56.527,102.874 56.646,103.127 56.734,103.389C56.817,103.635 56.859,103.894 56.897,104.151C57.021,104.981 57.154,105.812 57.221,106.648C57.251,107.024 57.434,108.702 56.839,109.127C55.935,109.774 54.43,109.734 53.454,109.281C53.002,109.071 52.42,108.665 52.335,108.111C51.984,105.828 54.194,103.902 56.216,103.376" style="fill:none;stroke-width:1px;stroke:black;"/>
    </g>
    <g transform="matrix(1,0,0,1,-1.43398,-1.02323)">
        <path d="M30.672,36.659C31.162,37.535 31.588,38.631 31.572,40.783C31.559,42.568 31.2,46.885 31.2,47.359" style="fill:none;stroke-width:1px;stroke:black;"/>
    </g>
</svg>
