<?xml version="1.0" standalone="no"?>
<!DOCTYPE svg PUBLIC "-//W3C//DTD SVG 20010904//EN"
 "http://www.w3.org/TR/2001/REC-SVG-20010904/DTD/svg10.dtd">
<svg version="1.0" xmlns="http://www.w3.org/2000/svg"
 width="700.000000pt" height="700.000000pt" viewBox="0 0 700.000000 700.000000"
 preserveAspectRatio="xMidYMid meet">
<metadata>
Created by potrace 1.11, written by Peter Selinger 2001-2013
</metadata>
<g transform="translate(0.000000,700.000000) scale(0.100000,-0.100000)"
fill="#000000" stroke="none">
<path d="M2995 6278 c-85 -31 -132 -104 -120 -186 9 -60 28 -100 99 -207 168
-252 330 -408 491 -474 90 -37 208 -35 290 5 67 32 146 108 177 168 44 87 32
209 -32 301 -112 162 -360 314 -624 380 -99 25 -232 31 -281 13z m228 -179
c136 -35 294 -107 390 -175 111 -79 181 -175 171 -232 -12 -63 -97 -133 -164
-134 -135 -2 -302 136 -482 398 -66 95 -91 141 -83 153 6 11 113 5 168 -10z"/>
<path d="M1074 5645 c-86 -26 -150 -100 -222 -255 -56 -120 -119 -329 -137
-450 -26 -174 -26 -196 0 -236 27 -42 79 -56 205 -57 243 -3 390 25 494 93
193 125 305 316 306 521 0 129 -88 245 -243 322 -130 63 -308 91 -403 62z
m156 -169 c101 -10 216 -62 273 -125 20 -23 38 -48 38 -56 11 -124 -27 -224
-120 -322 -89 -95 -155 -128 -274 -138 -37 -4 -76 -8 -87 -10 -19 -4 -116 -7
-161 -6 -26 1 -26 1 -17 56 7 45 27 136 53 235 24 94 83 234 127 304 30 45 77
78 102 71 6 -2 36 -6 66 -9z"/>
<path d="M5618 5449 c-121 -27 -319 -224 -411 -410 -73 -150 -65 -255 27 -318
53 -37 259 -89 371 -94 250 -13 427 63 662 283 122 115 126 189 17 295 -36 36
-190 135 -208 135 -3 0 -29 11 -58 24 -145 67 -315 103 -400 85z m232 -209
c108 -36 217 -88 283 -136 l47 -34 -22 -23 c-103 -102 -232 -189 -328 -221
-107 -36 -280 -29 -444 19 -55 16 -57 18 -51 43 6 25 26 69 57 124 42 75 135
177 218 242 31 24 41 26 92 22 32 -3 98 -19 148 -36z"/>
<path d="M2709 5216 c-2 -2 -42 -6 -89 -10 -196 -15 -351 -92 -533 -266 -290
-276 -523 -762 -574 -1195 -15 -128 -9 -391 11 -490 46 -227 164 -502 294
-684 76 -108 235 -275 332 -349 227 -173 505 -303 820 -383 97 -24 97 -24 205
-44 117 -21 129 -23 203 -31 37 -3 75 -8 86 -10 31 -6 227 -17 296 -17 297 -1
675 134 990 352 354 245 575 542 645 869 15 72 18 379 4 462 -4 25 -10 68 -13
95 -18 184 -97 480 -181 680 -80 190 -228 435 -324 539 -120 128 -321 242
-568 320 -88 27 -258 71 -308 79 -46 8 -157 26 -185 32 -37 6 -185 24 -260 31
-36 3 -78 8 -95 10 -37 6 -750 16 -756 10z m646 -180 c103 -6 272 -21 340 -31
17 -2 53 -7 80 -10 28 -4 57 -8 65 -10 8 -3 33 -7 55 -11 272 -40 595 -155
750 -266 144 -103 305 -348 420 -637 51 -130 116 -358 130 -461 3 -25 8 -52
10 -60 15 -59 31 -289 29 -415 -3 -135 -27 -235 -89 -361 -181 -372 -634 -704
-1130 -830 -95 -24 -130 -27 -260 -28 -82 0 -184 3 -225 7 -41 5 -93 10 -115
12 -22 3 -51 7 -65 9 -14 3 -43 8 -65 11 -46 6 -58 8 -170 31 -331 68 -647
208 -875 389 -82 65 -215 206 -275 289 -145 204 -256 486 -282 716 -12 106 -6
307 12 401 53 279 129 485 258 704 142 241 298 400 484 493 79 40 125 50 265
58 62 4 114 7 115 8 6 5 438 -2 538 -8z"/>
<path d="M6078 3825 c-114 -39 -235 -208 -275 -385 -24 -109 -23 -309 3 -460
24 -139 118 -390 163 -437 60 -62 177 -77 266 -34 140 69 314 333 374 568 19
74 23 236 7 308 -31 139 -100 267 -186 342 -91 79 -266 128 -352 98z m177
-194 c77 -34 140 -116 172 -224 22 -74 24 -85 24 -162 1 -115 -16 -178 -89
-319 -106 -207 -230 -316 -276 -243 -29 45 -96 259 -110 352 -2 17 -7 48 -11
70 -8 56 -9 191 -1 245 18 115 55 198 121 266 42 45 46 46 87 40 23 -4 61 -15
83 -25z"/>
<path d="M900 3204 c-57 -11 -160 -48 -225 -81 -176 -88 -289 -204 -301 -308
-15 -132 76 -435 155 -515 77 -79 274 -124 414 -94 179 37 355 203 382 360 26
150 0 367 -57 482 -27 53 -86 108 -144 134 -44 19 -172 32 -224 22z m183 -201
c48 -44 79 -168 78 -313 -1 -103 -24 -161 -88 -222 -103 -99 -258 -124 -390
-61 -51 24 -99 136 -127 295 -16 93 -8 118 54 171 158 135 395 200 473 130z"/>
<path d="M5085 1879 c-154 -29 -304 -149 -382 -307 -69 -138 -48 -202 102
-313 230 -171 597 -312 793 -304 205 9 322 220 243 440 -40 114 -159 258 -285
345 -149 102 -350 161 -471 139z m136 -179 c30 -5 90 -28 134 -49 244 -120
389 -337 314 -470 -27 -49 -47 -56 -140 -48 -158 13 -538 184 -658 296 l-32
30 19 38 c43 84 150 181 223 201 46 14 76 14 140 2z"/>
<path d="M2520 1555 c-183 -42 -304 -107 -422 -225 -116 -117 -188 -279 -188
-422 0 -67 30 -130 73 -152 57 -29 182 -44 382 -44 377 0 564 46 638 159 94
140 133 373 84 492 -36 85 -114 151 -231 194 -68 25 -225 24 -336 -2z m329
-185 c83 -42 104 -116 71 -245 -24 -96 -62 -168 -94 -183 -81 -37 -239 -56
-451 -56 -184 1 -281 10 -289 29 -7 19 19 116 45 168 29 57 95 137 144 174
170 130 438 183 574 113z"/>
</g>
</svg>
